Motion_mu02
version=1
nRows=12
nColumns=43
inDegrees=yes
endheader
time	pelvis_tilt	pelvis_list	pelvis_rotation	pelvis_tx	pelvis_ty	pelvis_tz	hip_flexion_r	hip_adduction_r	hip_rotation_r	knee_angle_r	ankle_angle_r	subtalar_angle_r	mtp_angle_r	hip_flexion_l	hip_adduction_l	hip_rotation_l	knee_angle_l	ankle_angle_l	subtalar_angle_l	mtp_angle_l	lumbar_extension	lumbar_bending	lumbar_rotation	neck_flexion	neck_lateral_bending	neck_rotation	arm_flex_r	arm_add_r	arm_rot_r	elbow_flex_r	pro_sup_r	wrist_flex_r	wrist_dev_r	hand_finger_flex_r	arm_flex_l	arm_add_l	arm_rot_l	elbow_flex_l	pro_sup_l	wrist_flex_l	wrist_dev_l	hand_finger_flex_l
      0.00250000	      0.52018892	     15.98066740	    -90.16406844	     -0.01177655	      0.92352904	      0.74833228	      8.20292700	     -5.71754430	    -15.01399654	     -7.36665237	     12.83422111	      7.00022056	      1.17131511	      6.78741056	      0.82130667	    -17.86799548	     -2.23749612	     15.63518785	      2.30484760	     -5.65252440	     13.03433449	     -0.05665593	     -3.23092089	     29.97479006	      3.15091840	     12.05846154	    -42.09208738	   -161.55018995	   -142.52130970	     34.94784907	    140.29361848	      5.00865732	    -22.54572703	      0.97865352	    -32.93140314	    208.03983463	   -115.52632868	     34.39638596	    120.23518048	    -13.12001891	    -17.00325373	     17.17702995
      0.00500000	      0.51506926	     16.01918643	    -90.18013967	     -0.01178157	      0.92367349	      0.74936035	      8.18604955	     -5.71852412	    -15.02733959	     -7.37896334	     12.82945154	      6.99920836	      1.16970875	      6.75042151	      0.81515234	    -17.88887936	     -2.25626855	     15.62721907	      2.29717333	     -5.65899399	     13.08336556	     -0.05345081	     -3.25669207	     29.97246305	      3.14739765	     12.06403753	    -42.04947438	   -161.55563525	   -142.50203976	     34.95934024	    140.30030577	      5.01325282	    -22.54768258	      0.97374992	    -32.90863061	    208.01778854	   -115.52793314	     34.41264615	    120.23559016	    -13.12734256	    -16.99354756	     17.19118784
      0.00750000	      0.41018477	     16.01098329	    -90.13238693	     -0.01141946	      0.92368630	      0.75023512	      8.20992955	     -5.72027148	    -16.23399464	     -7.62085459	     13.27665776	      8.41541426	      0.29329232	      6.77552005	      0.72720339	    -18.51341029	     -2.42989743	     16.33147582	      2.74050958	    -10.55543269	     12.99247353	      0.01293424	     -2.95433063	     30.26513018	      2.93746545	     11.84186235	    -41.22012407	   -160.72637272	   -139.71288826	     35.18283677	    138.16836366	      6.51764167	    -21.73824260	     -3.69849743	    -33.02869152	    207.74892807	   -115.07142832	     35.28824669	    119.58397242	    -18.21280374	    -13.47262011	     29.96119708
      0.01000000	      0.40489767	     16.05446744	    -90.15400163	     -0.01143150	      0.92368271	      0.75121047	      8.19407849	     -5.72056293	    -16.22707475	     -7.63154238	     13.26357663	      8.41856151	      0.29131958	      6.74411963	      0.71718984	    -18.52094934	     -2.44045787	     16.32290304	      2.73818682	    -10.55967856	     13.04203373	      0.02419389	     -2.97861172	     30.25741874	      2.94360416	     11.84397250	    -41.17445652	   -160.75897994	   -139.70838446	     35.18951143	    138.17137153	      6.52401387	    -21.74956114	     -3.69709159	    -32.99692118	    207.73042926	   -115.07764976	     35.29017252	    119.58141281	    -18.22225333	    -13.48276584	     29.96383204
      0.01250000	      0.20934333	     16.44762684	    -90.22469617	     -0.01143705	      0.92347412	      0.75168735	      8.66157107	     -5.53085989	    -16.04019163	     -7.69292426	     12.69050798	      8.50187883	      0.19235568	      7.11372150	      0.51946277	    -18.78770062	     -2.35455407	     15.97998304	      2.71580956	    -10.81730898	     13.40916877	      0.34065429	     -2.98193741	     30.27914770	      2.88604050	     12.09494981	    -40.78055583	   -160.91690076	   -138.96472817	     34.87617349	    138.18404551	      6.92827298	    -22.41196069	     -3.61303612	    -32.75941913	    208.00033318	   -114.59886492	     35.38812742	    119.55256305	    -18.40292697	    -14.23611875	     30.32181966
      0.01500000	      0.20612634	     16.48248736	    -90.23325271	     -0.01141901	      0.92353414	      0.75265571	      8.63929478	     -5.53764218	    -16.03813144	     -7.70654633	     12.68801013	      8.50075442	      0.19178899	      7.08188992	      0.51484639	    -18.79201408	     -2.37070076	     15.98019882	      2.71374939	    -10.81980627	     13.44961435	      0.33857549	     -3.00685252	     30.27821267	      2.88292234	     12.09528772	    -40.74837805	   -160.91844376	   -138.96295659	     34.88583347	    138.18069659	      6.92891793	    -22.41532321	     -3.61316681	    -32.73910059	    207.98660558	   -114.60330020	     35.39369365	    119.55036047	    -18.40747252	    -14.24250461	     30.32541774
      0.01750000	      0.19923206	     16.51946421	    -90.23177437	     -0.01135656	      0.92365545	      0.75356051	      8.62564520	     -5.54362715	    -16.03470365	     -7.71940710	     12.68274103	      8.50066035	      0.19090421	      7.06024793	      0.50739515	    -18.79893205	     -2.38335048	     15.98001378	      2.71144730	    -10.82306671	     13.48208515	      0.33710695	     -3.02956762	     30.27546589	      2.87918791	     12.09540419	    -40.70749825	   -160.91846354	   -138.94948103	     34.89383527	    138.17790810	      6.93419692	    -22.42079258	     -3.61163017	    -32.70255227	    207.96498112	   -114.60471964	     35.41080677	    119.54862063	    -18.41031620	    -14.25350698	     30.33127739
      0.02000000	      0.09447875	     16.77171997	    -90.23906076	     -0.01128135	      0.92340689	      0.75403882	      8.95365425	     -5.45997955	    -15.96600199	     -7.87487763	     12.47569538	      8.44270359	      0.14770253	      7.38028620	      0.37941976	    -18.92040261	     -2.54620803	     16.00989500	      2.75299076	    -11.03518815	     13.63046257	      0.47269841	     -3.00829557	     30.53376401	      2.81371476	     12.06452084	    -40.18379165	   -160.79562556	   -137.88930797	     34.78965384	    137.78985494	      7.34200300	    -22.75389457	     -3.48889136	    -32.30909082	    208.05991535	   -113.97500491	     35.52660253	    119.56052334	    -18.23307608	    -14.82735415	     30.84888011
      0.02250000	      0.09044902	     16.80462669	    -90.24128066	     -0.01122724	      0.92349057	      0.75496148	      8.93213313	     -5.46766856	    -15.96153772	     -7.88637649	     12.47317149	      8.44251570	      0.14733547	      7.35189409	      0.36948373	    -18.92477876	     -2.55784561	     16.01106354	      2.75129946	    -11.03743066	     13.66307367	      0.46823555	     -3.02291185	     30.53167013	      2.81133559	     12.06372874	    -40.15368360	   -160.79609731	   -137.89214786	     34.79306249	    137.78261566	      7.34263358	    -22.75448296	     -3.48857734	    -32.29059453	    208.04368370	   -113.97852488	     35.53855036	    119.55793875	    -18.23528816	    -14.83315323	     30.85286575
      0.02500000	      0.08281209	     16.84201126	    -90.23711701	     -0.01114303	      0.92354581	      0.75587888	      8.91356502	     -5.47463407	    -15.95433200	     -7.89783388	     12.46796957	      8.44331597	      0.14671887	      7.32747668	      0.35977073	    -18.93065532	     -2.56804101	     16.01200093	      2.74977434	    -11.04032345	     13.69463185	      0.46696641	     -3.03131120	     30.52698745	      2.80898698	     12.06189446	    -40.10918059	   -160.79371586	   -137.89330366	     34.79203113	    137.77490013	      7.34782898	    -22.75548538	     -3.48636640	    -32.25763819	    208.01839012	   -113.97749333	     35.56410273	    119.55572417	    -18.23506295	    -14.84345370	     30.85908088
      0.02750000	     -0.03264469	     16.96817745	    -90.25439322	     -0.01108698	      0.92346062	      0.75653422	      9.06653665	     -5.38309344	    -15.67997775	     -8.00618029	     12.25191778	      8.48005744	      0.12211502	      7.43696067	      0.23312822	    -19.06439556	     -2.58940001	     16.05600225	      2.76827023	    -11.16404450	     13.73866234	      0.60964005	     -2.99065848	     30.61505291	      2.85336957	     11.90777060	    -39.73918994	   -160.75330559	   -137.34236417	     34.64971286	    137.50967155	      7.83974192	    -22.89991964	     -3.29117377	    -31.94227131	    208.16012326	   -113.39917452	     35.87089839	    119.56877245	    -17.95274487	    -15.18668584	     31.22170468
      0.03000000	     -0.03260909	     17.00462758	    -90.26033644	     -0.01104555	      0.92353505	      0.75749743	      9.04898527	     -5.38820100	    -15.67868771	     -8.01361761	     12.25020698	      8.47711714	      0.12194971	      7.40741816	      0.22685537	    -19.06702475	     -2.60290242	     16.05633610	      2.76855954	    -11.16676944	     13.77199527	      0.60559145	     -2.99273318	     30.61465740	      2.84570984	     11.90761285	    -39.70304996	   -160.76328822	   -137.35018986	     34.65709347	    137.49932547	      7.84367025	    -22.90065077	     -3.28902553	    -31.91034921	    208.13687292	   -113.40107846	     35.88169171	    119.56540475	    -17.95195115	    -15.19169702	     31.22722383
